<svg width="258" height="321" viewBox="0 0 258 321" fill="none" xmlns="http://www.w3.org/2000/svg">
<path fill-rule="evenodd" clip-rule="evenodd" d="M211.467 -14.926C194.676 -34.0557 164.343 -42.251 125.534 -42.251H12.8753C4.94503 -42.251 -1.80749 -36.4811 -3.04428 -28.6475L-49.9537 268.793C-50.8804 274.663 -46.3431 279.968 -40.4028 279.968H29.1455L24.346 310.404C23.5375 315.539 27.5026 320.183 32.7008 320.183H91.3211C98.2619 320.183 104.169 315.133 105.251 308.282L105.827 305.303L116.869 235.281L117.582 231.412C118.663 224.557 124.57 219.511 131.508 219.511H140.276C197.069 219.511 241.538 196.438 254.53 129.717C259.96 101.838 257.155 78.5667 242.797 62.2056C238.451 57.2589 233.05 53.165 226.748 49.8278C231.171 21.6353 226.718 2.45022 211.467 -14.926Z" fill="white"/>
</svg>
