<svg width="19" height="21" viewBox="0 0 19 21" fill="none" xmlns="http://www.w3.org/2000/svg">
<path d="M7.11458 4.98944L8.45833 3.63527L8.45833 15.7082C8.45833 15.9845 8.56808 16.2494 8.76343 16.4448C8.95878 16.6401 9.22373 16.7499 9.5 16.7499C9.77627 16.7499 10.0412 16.6401 10.2366 16.4448C10.4319 16.2494 10.5417 15.9845 10.5417 15.7082L10.5417 3.63527L11.8854 4.98944C11.9823 5.08707 12.0975 5.16457 12.2244 5.21745C12.3513 5.27033 12.4875 5.29756 12.625 5.29756C12.7625 5.29756 12.8987 5.27033 13.0256 5.21745C13.1525 5.16457 13.2677 5.08707 13.3646 4.98944C13.4622 4.8926 13.5397 4.77739 13.5926 4.65046C13.6455 4.52352 13.6727 4.38737 13.6727 4.24986C13.6727 4.11234 13.6455 3.97619 13.5926 3.84925C13.5397 3.72232 13.4622 3.60711 13.3646 3.51027L10.2396 0.385272C10.1427 0.287638 10.0275 0.210144 9.9006 0.15726C9.77366 0.104376 9.63751 0.0771484 9.5 0.0771484C9.36249 0.0771484 9.22634 0.104376 9.0994 0.15726C8.97246 0.210144 8.85725 0.287638 8.76042 0.385272L5.63542 3.51027C5.43927 3.70642 5.32907 3.97246 5.32907 4.24986C5.32907 4.52725 5.43927 4.79329 5.63542 4.98944C5.83157 5.18559 6.0976 5.29578 6.375 5.29578C6.6524 5.29578 6.91843 5.18559 7.11458 4.98944V4.98944ZM15.75 7.37486L13.6667 7.37486C13.3904 7.37486 13.1254 7.4846 12.9301 7.67995C12.7347 7.8753 12.625 8.14026 12.625 8.41652C12.625 8.69279 12.7347 8.95774 12.9301 9.15309C13.1254 9.34844 13.3904 9.45819 13.6667 9.45819H15.75C16.0263 9.45819 16.2912 9.56794 16.4866 9.76329C16.6819 9.95864 16.7917 10.2236 16.7917 10.4999L16.7917 17.7915C16.7917 18.0678 16.6819 18.3327 16.4866 18.5281C16.2912 18.7234 16.0263 18.8332 15.75 18.8332L3.25 18.8332C2.97373 18.8332 2.70878 18.7234 2.51343 18.5281C2.31808 18.3327 2.20833 18.0678 2.20833 17.7915L2.20833 10.4999C2.20833 10.2236 2.31808 9.95864 2.51343 9.76329C2.70878 9.56794 2.97373 9.45819 3.25 9.45819H5.33333C5.6096 9.45819 5.87455 9.34844 6.0699 9.15309C6.26525 8.95774 6.375 8.69279 6.375 8.41652C6.375 8.14026 6.26525 7.8753 6.0699 7.67995C5.87455 7.4846 5.6096 7.37486 5.33333 7.37486H3.25C2.4212 7.37486 1.62634 7.7041 1.04029 8.29015C0.45424 8.8762 0.125 9.67105 0.125 10.4999L0.125 17.7915C0.125 18.6203 0.45424 19.4152 1.04029 20.0012C1.62634 20.5873 2.4212 20.9165 3.25 20.9165L15.75 20.9165C16.5788 20.9165 17.3737 20.5873 17.9597 20.0012C18.5458 19.4152 18.875 18.6203 18.875 17.7915L18.875 10.4999C18.875 9.67105 18.5458 8.8762 17.9597 8.29015C17.3737 7.7041 16.5788 7.37486 15.75 7.37486Z" fill="white"/>
</svg>
