<svg width="132" height="192" viewBox="0 0 132 192" fill="none" xmlns="http://www.w3.org/2000/svg">
<path fill-rule="evenodd" clip-rule="evenodd" d="M85.467 18.074C68.6762 -1.0557 38.3434 -9.25098 -0.465965 -9.25098H-113.125C-121.055 -9.25098 -127.807 -3.48106 -129.044 4.35245L-175.954 301.793C-176.88 307.663 -172.343 312.968 -166.403 312.968H-96.8545L-101.654 343.404C-102.462 348.539 -98.4974 353.183 -93.2992 353.183H-34.6789C-27.7381 353.183 -21.8311 348.133 -20.7493 341.282L-20.1734 338.303L-9.1309 268.281L-8.41836 264.412C-7.33662 257.557 -1.42956 252.511 5.50755 252.511H14.2758C71.0686 252.511 115.538 229.438 128.53 162.717C133.96 134.838 131.155 111.567 116.797 95.2056C112.451 90.2589 107.05 86.165 100.748 82.8278C105.171 54.6353 100.718 35.4502 85.467 18.074Z" fill="white"/>
</svg>
